<svg width="1011" height="638" viewBox="0 0 1011 638" fill="none" xmlns="http://www.w3.org/2000/svg">
<g clip-path="url(#clip0_198_8)">
<rect width="1011" height="638" rx="20" fill="#FEFEFE"/>
<rect x="1145.63" y="80.2383" width="69.4551" height="618.814" transform="rotate(38.3314 1145.63 80.2383)" fill="url(#paint0_linear_198_8)"/>
<g filter="url(#filter0_d_198_8)">
<rect x="1039.44" y="15.5067" width="123.573" height="618.814" transform="rotate(38.3314 1039.44 15.5067)" fill="url(#paint1_linear_198_8)" shape-rendering="crispEdges"/>
</g>
<path d="M790.857 479.995C825.608 453.679 868.005 439.438 911.596 439.438H975.054L893.503 501.192H762.864L790.857 479.995Z" fill="url(#paint2_linear_198_8)"/>
<g filter="url(#filter1_d_198_8)">
<path d="M564.899 499.288H744.47C857.656 499.288 967.203 459.3 1053.77 386.384V638H245.934C328.417 549.527 443.941 499.288 564.899 499.288Z" fill="#FEFEFE"/>
</g>
<g filter="url(#filter2_d_198_8)">
<path d="M492.855 8.90353H246.303L136.576 138.982H244.187C333.933 138.982 418.964 98.8037 475.949 29.4719L492.855 8.90353Z" fill="#FEFEFE"/>
</g>
<path d="M485.362 -0.318604H244.089L142.917 129.76H237.035C327.893 129.76 413.857 88.5829 470.802 17.7837L485.362 -0.318604Z" fill="url(#paint3_linear_198_8)"/>
<path d="M244.089 -0.318604L142.917 129.76H261.827L364.726 -0.318604H244.089Z" fill="url(#paint4_linear_198_8)"/>
<g filter="url(#filter3_d_198_8)">
<rect x="178.172" y="-113.387" width="123.573" height="558.342" transform="rotate(38.3314 178.172 -113.387)" fill="url(#paint5_linear_198_8)" shape-rendering="crispEdges"/>
</g>
<path d="M562.265 513.412H746.235C852.572 513.412 955.828 477.701 1039.44 412.005V638H261.6C341.326 558.23 449.484 513.412 562.265 513.412Z" fill="url(#paint6_linear_198_8)"/>
<path d="M538.507 274.371C483.771 229.166 476.644 214.317 483.771 210.223C466.815 219.815 445.096 251.659 474.003 278.037C515.875 316.245 538.507 332.407 526.712 341.635C542.93 333.424 550.302 314.143 551.961 305.529C552.993 291.893 543.422 279.075 538.507 274.371Z" fill="#EB6D18"/>
<path d="M466.696 305.037C445.579 305.037 434.433 331.205 431.5 344.289H520.224C536.649 340.8 531.467 331.205 526.823 326.844L504.825 305.037H466.696Z" fill="#F7AF25"/>
<path d="M544.371 246.821C565.448 246.821 576.573 220.653 579.5 207.569H490.945C474.551 211.058 479.723 220.653 484.358 225.014L506.314 246.821H544.371Z" fill="#B21919"/>
<path d="M348.31 382.707H354.205C354.119 377.522 349.858 373.943 343.381 373.943C337.003 373.943 332.33 377.466 332.358 382.75C332.344 387.039 335.369 389.497 340.284 390.676L343.452 391.471C346.619 392.238 348.381 393.147 348.395 395.108C348.381 397.238 346.364 398.687 343.239 398.687C340.043 398.687 337.741 397.21 337.543 394.298H331.591C331.747 400.591 336.25 403.843 343.31 403.843C350.412 403.843 354.588 400.448 354.602 395.122C354.588 390.278 350.938 387.707 345.881 386.571L343.267 385.946C340.739 385.363 338.622 384.426 338.665 382.338C338.665 380.463 340.327 379.085 343.338 379.085C346.278 379.085 348.082 380.42 348.31 382.707ZM363.089 403.431L365.249 396.798H375.746L377.905 403.431H384.496L374.467 374.341H366.541L356.499 403.431H363.089ZM366.811 391.997L370.391 380.988H370.618L374.197 391.997H366.811ZM412.33 374.341H406.207V392.636H405.952L393.395 374.341H387.997V403.431H394.148V385.122H394.361L407.017 403.431H412.33V374.341ZM427.724 403.431C436.587 403.431 441.957 397.948 441.957 388.858C441.957 379.795 436.587 374.341 427.809 374.341H417.411V403.431H427.724ZM423.562 398.162V379.61H427.482C432.937 379.61 435.82 382.395 435.82 388.858C435.82 395.349 432.937 398.162 427.468 398.162H423.562ZM446.513 403.431H452.663V391.414H465.149V403.431H471.286V374.341H465.149V386.343H452.663V374.341H446.513V403.431ZM474.652 374.341L485.263 393.147V403.431H491.371V393.147L501.982 374.341H495.092L488.459 386.869H488.175L481.541 374.341H474.652ZM507.386 403.431L509.545 396.798H520.043L522.202 403.431H528.793L518.764 374.341H510.838L500.795 403.431H507.386ZM511.108 391.997L514.688 380.988H514.915L518.494 391.997H511.108ZM546.566 403.431L548.725 396.798H559.222L561.381 403.431H567.972L557.944 374.341H550.018L539.975 403.431H546.566ZM550.288 391.997L553.867 380.988H554.094L557.674 391.997H550.288ZM595.774 384.525C594.964 377.806 589.879 373.943 583.146 373.943C575.462 373.943 569.595 379.369 569.595 388.886C569.595 398.375 575.362 403.829 583.146 403.829C590.604 403.829 595.107 398.872 595.774 393.517L589.553 393.488C588.97 396.599 586.527 398.389 583.246 398.389C578.828 398.389 575.831 395.108 575.831 388.886C575.831 382.835 578.786 379.383 583.288 379.383C586.655 379.383 589.084 381.329 589.553 384.525H595.774ZM604.652 403.431L606.811 396.798H617.308L619.467 403.431H626.058L616.03 374.341H608.104L598.061 403.431H604.652ZM608.374 391.997L611.953 380.988H612.18L615.76 391.997H608.374ZM629.56 403.431H648.182V398.36H635.71V374.341H629.56V403.431ZM658.011 403.431L660.17 396.798H670.668L672.827 403.431H679.418L669.389 374.341H661.463L651.42 403.431H658.011ZM661.733 391.997L665.312 380.988H665.54L669.119 391.997H661.733Z" fill="#F7AF25"/>
<path d="M389.852 430.431H391.614L392.494 425.119H395.676C399.057 425.119 400.932 423.045 401.358 420.488C401.784 417.903 400.591 415.886 397.182 415.886H392.267L389.852 430.431ZM392.757 423.556L393.773 417.448H396.869C399.227 417.448 399.909 418.727 399.625 420.488C399.341 422.221 398.205 423.556 395.875 423.556H392.757ZM402.301 430.431H403.977L405.113 423.528C405.369 422.051 406.704 420.971 408.295 420.971C408.75 420.971 409.204 421.056 409.318 421.085L409.602 419.38C409.403 419.352 408.977 419.352 408.721 419.352C407.414 419.352 406.136 420.091 405.568 421.17H405.454L405.738 419.522H404.119L402.301 430.431ZM413.966 430.659C416.864 430.659 419.165 428.471 419.705 425.147C420.266 421.681 418.625 419.38 415.614 419.38C412.716 419.38 410.415 421.568 409.875 424.92C409.321 428.358 410.955 430.659 413.966 430.659ZM413.995 429.153C411.807 429.153 411.154 427.278 411.495 425.147C411.857 422.903 413.284 420.886 415.586 420.886C417.773 420.886 418.426 422.789 418.086 424.92C417.723 427.171 416.296 429.153 413.995 429.153ZM431.731 419.522H429.842L425.381 428.216H425.268L423.705 419.522H421.958L424.174 430.431H425.879L431.731 419.522ZM432.125 430.431H433.801L435.619 419.522H433.943L432.125 430.431ZM435.293 417.676C435.946 417.676 436.486 417.164 436.486 416.539C436.486 415.914 435.946 415.403 435.293 415.403C434.639 415.403 434.099 415.914 434.099 416.539C434.099 417.164 434.639 417.676 435.293 417.676ZM440.99 430.659C443.086 430.659 444.016 429.352 444.485 428.755H444.684L444.4 430.431H446.019L448.434 415.886H446.757L445.863 421.255H445.721C445.451 420.687 445.01 419.38 442.88 419.38C440.124 419.38 437.858 421.568 437.283 425.005C436.715 428.471 438.256 430.659 440.99 430.659ZM441.402 429.153C439.3 429.153 438.583 427.306 438.973 424.977C439.35 422.676 440.642 420.886 442.766 420.886C444.819 420.886 445.685 422.534 445.28 424.977C444.868 427.448 443.419 429.153 441.402 429.153ZM453.858 430.659C456.081 430.659 457.871 429.551 458.659 427.903L457.125 427.448C456.507 428.585 455.456 429.153 454.114 429.153C452.011 429.153 450.889 428.216 451.294 425.545H459.227L459.341 424.835C460.03 420.772 457.842 419.38 455.562 419.38C452.615 419.38 450.257 421.71 449.71 425.062C449.149 428.414 450.712 430.659 453.858 430.659ZM451.528 424.096C451.862 422.548 453.474 420.886 455.307 420.886C457.132 420.886 458.07 422.25 457.75 424.096H451.528ZM471.021 415.886H469.259L466.844 430.431H468.606L471.021 415.886ZM474.666 423.869C475.007 421.966 476.342 420.886 477.961 420.886C479.524 420.886 480.291 421.909 480.007 423.613L478.87 430.431H480.547L481.711 423.5C482.166 420.716 480.887 419.38 478.7 419.38C477.052 419.38 475.887 420.119 475.206 421.227H475.064L475.348 419.522H473.728L471.91 430.431H473.586L474.666 423.869ZM490.286 419.522H487.828L488.013 418.414C488.212 417.335 488.751 416.767 489.859 416.767C490.342 416.767 490.598 416.88 490.768 416.937L491.479 415.488C491.251 415.375 490.768 415.204 489.945 415.204C488.382 415.204 486.706 416.142 486.422 418.017L486.173 419.522H484.405L484.178 420.943H485.932L484.348 430.431H486.024L487.594 420.943H490.058L490.286 419.522ZM490.816 430.431H492.493L494.311 419.522H492.635L490.816 430.431ZM493.984 417.676C494.637 417.676 495.177 417.164 495.177 416.539C495.177 415.914 494.637 415.403 493.984 415.403C493.331 415.403 492.791 415.914 492.791 416.539C492.791 417.164 493.331 417.676 493.984 417.676ZM498.318 423.869C498.659 421.966 499.994 420.886 501.614 420.886C503.176 420.886 503.943 421.909 503.659 423.613L502.523 430.431H504.199L505.364 423.5C505.818 420.716 504.54 419.38 502.352 419.38C500.705 419.38 499.54 420.119 498.858 421.227H498.716L499 419.522H497.381L495.562 430.431H497.239L498.318 423.869ZM507.262 430.431H508.938L510.756 419.522H509.08L507.262 430.431ZM510.429 417.676C511.083 417.676 511.623 417.164 511.623 416.539C511.623 415.914 511.083 415.403 510.429 415.403C509.776 415.403 509.236 415.914 509.236 416.539C509.236 417.164 509.776 417.676 510.429 417.676ZM518.57 419.522H516.234L516.667 416.909H514.991L514.558 419.522H512.917L512.69 420.943H514.323L513.201 427.761C512.888 429.664 514.252 430.573 515.673 430.573C516.298 430.573 516.724 430.46 516.979 430.375L516.866 428.869C516.724 428.897 516.496 428.954 516.127 428.954C515.388 428.954 514.707 428.727 514.934 427.306L515.992 420.943H518.343L518.57 419.522ZM523.702 430.659C525.925 430.659 527.714 429.551 528.503 427.903L526.969 427.448C526.351 428.585 525.3 429.153 523.957 429.153C521.855 429.153 520.733 428.216 521.138 425.545H529.071L529.185 424.835C529.874 420.772 527.686 419.38 525.406 419.38C522.459 419.38 520.101 421.71 519.554 425.062C518.993 428.414 520.555 430.659 523.702 430.659ZM521.372 424.096C521.706 422.548 523.318 420.886 525.151 420.886C526.976 420.886 527.913 422.25 527.594 424.096H521.372ZM546.433 419.636H548.137C548.393 417.335 546.688 415.687 543.876 415.687C541.092 415.687 538.648 417.306 538.222 419.75C537.91 421.71 539.131 422.875 541.29 423.528L542.995 424.039C544.472 424.466 545.751 425.005 545.495 426.454C545.239 428.045 543.535 429.096 541.518 429.096C539.785 429.096 538.364 428.329 538.506 426.681H536.688C536.461 429.068 538.137 430.687 541.262 430.687C544.614 430.687 546.802 428.841 547.2 426.483C547.654 423.755 545.211 422.875 543.79 422.477L542.37 422.079C541.347 421.795 539.7 421.227 539.955 419.664C540.183 418.272 541.631 417.25 543.563 417.25C545.325 417.25 546.433 418.073 546.433 419.636ZM553.732 430.659C556.63 430.659 558.931 428.471 559.471 425.147C560.032 421.681 558.391 419.38 555.38 419.38C552.482 419.38 550.181 421.568 549.641 424.92C549.087 428.358 550.721 430.659 553.732 430.659ZM553.76 429.153C551.573 429.153 550.919 427.278 551.26 425.147C551.623 422.903 553.05 420.886 555.351 420.886C557.539 420.886 558.192 422.789 557.851 424.92C557.489 427.171 556.061 429.153 553.76 429.153ZM565.239 415.886H563.563L561.148 430.431H562.825L565.239 415.886ZM573.508 425.971C573.167 428.017 571.463 428.954 570.213 428.954C568.821 428.954 567.997 427.931 568.252 426.341L569.389 419.522H567.713L566.548 426.454C566.093 429.238 567.343 430.573 569.389 430.573C571.037 430.573 572.287 429.693 572.968 428.585H573.082L572.77 430.431H574.446L576.264 419.522H574.588L573.508 425.971ZM584.078 419.522H581.741L582.175 416.909H580.499L580.065 419.522H578.425L578.197 420.943H579.831L578.709 427.761C578.396 429.664 579.76 430.573 581.18 430.573C581.805 430.573 582.232 430.46 582.487 430.375L582.374 428.869C582.232 428.897 582.004 428.954 581.635 428.954C580.896 428.954 580.214 428.727 580.442 427.306L581.5 420.943H583.851L584.078 419.522ZM584.781 430.431H586.457L588.276 419.522H586.599L584.781 430.431ZM587.949 417.676C588.602 417.676 589.142 417.164 589.142 416.539C589.142 415.914 588.602 415.403 587.949 415.403C587.295 415.403 586.756 415.914 586.756 416.539C586.756 417.164 587.295 417.676 587.949 417.676ZM594.044 430.659C596.942 430.659 599.243 428.471 599.783 425.147C600.344 421.681 598.703 419.38 595.692 419.38C592.794 419.38 590.493 421.568 589.953 424.92C589.4 428.358 591.033 430.659 594.044 430.659ZM594.073 429.153C591.885 429.153 591.232 427.278 591.573 425.147C591.935 422.903 593.363 420.886 595.664 420.886C597.851 420.886 598.505 422.789 598.164 424.92C597.801 427.171 596.374 429.153 594.073 429.153ZM604.217 423.869C604.558 421.966 605.893 420.886 607.512 420.886C609.075 420.886 609.842 421.909 609.558 423.613L608.421 430.431H610.097L611.262 423.5C611.717 420.716 610.438 419.38 608.251 419.38C606.603 419.38 605.438 420.119 604.756 421.227H604.614L604.898 419.522H603.279L601.461 430.431H603.137L604.217 423.869ZM622.308 421.966C622.024 420.403 621.029 419.38 618.87 419.38C616.569 419.38 614.637 420.687 614.325 422.534C614.069 424.039 614.808 425.034 616.74 425.517L618.473 425.943C619.552 426.198 619.978 426.71 619.836 427.477C619.694 428.414 618.558 429.181 616.995 429.181C615.632 429.181 614.865 428.585 614.779 427.42L613.103 427.818C613.189 429.664 614.552 430.659 616.797 430.659C619.325 430.659 621.285 429.267 621.598 427.392C621.853 425.858 621.058 424.92 619.183 424.437L617.62 424.039C616.399 423.727 615.887 423.272 616.029 422.448C616.172 421.511 617.279 420.829 618.615 420.829C620.092 420.829 620.547 421.625 620.717 422.392L622.308 421.966Z" fill="#121212"/>
</g>
<defs>
<filter id="filter0_d_198_8" x="645.65" y="15.5067" width="500.729" height="582.061" filterUnits="userSpaceOnUse" color-interpolation-filters="sRGB">
<feFlood flood-opacity="0" result="BackgroundImageFix"/>
<feColorMatrix in="SourceAlpha" type="matrix" values="0 0 0 0 0 0 0 0 0 0 0 0 0 0 0 0 0 0 127 0" result="hardAlpha"/>
<feOffset dy="10"/>
<feGaussianBlur stdDeviation="5"/>
<feComposite in2="hardAlpha" operator="out"/>
<feColorMatrix type="matrix" values="0 0 0 0 0 0 0 0 0 0 0 0 0 0 0 0 0 0 0.1 0"/>
<feBlend mode="normal" in2="BackgroundImageFix" result="effect1_dropShadow_198_8"/>
<feBlend mode="normal" in="SourceGraphic" in2="effect1_dropShadow_198_8" result="shape"/>
</filter>
<filter id="filter1_d_198_8" x="185.934" y="326.384" width="907.839" height="351.616" filterUnits="userSpaceOnUse" color-interpolation-filters="sRGB">
<feFlood flood-opacity="0" result="BackgroundImageFix"/>
<feColorMatrix in="SourceAlpha" type="matrix" values="0 0 0 0 0 0 0 0 0 0 0 0 0 0 0 0 0 0 127 0" result="hardAlpha"/>
<feOffset dx="-10" dy="-10"/>
<feGaussianBlur stdDeviation="25"/>
<feComposite in2="hardAlpha" operator="out"/>
<feColorMatrix type="matrix" values="0 0 0 0 0.968627 0 0 0 0 0.686275 0 0 0 0 0.145098 0 0 0 0.3 0"/>
<feBlend mode="normal" in2="BackgroundImageFix" result="effect1_dropShadow_198_8"/>
<feBlend mode="normal" in="SourceGraphic" in2="effect1_dropShadow_198_8" result="shape"/>
</filter>
<filter id="filter2_d_198_8" x="106.576" y="-6.09647" width="416.279" height="190.079" filterUnits="userSpaceOnUse" color-interpolation-filters="sRGB">
<feFlood flood-opacity="0" result="BackgroundImageFix"/>
<feColorMatrix in="SourceAlpha" type="matrix" values="0 0 0 0 0 0 0 0 0 0 0 0 0 0 0 0 0 0 127 0" result="hardAlpha"/>
<feOffset dy="15"/>
<feGaussianBlur stdDeviation="15"/>
<feComposite in2="hardAlpha" operator="out"/>
<feColorMatrix type="matrix" values="0 0 0 0 0.968627 0 0 0 0 0.686275 0 0 0 0 0.145098 0 0 0 0.3 0"/>
<feBlend mode="normal" in2="BackgroundImageFix" result="effect1_dropShadow_198_8"/>
<feBlend mode="normal" in="SourceGraphic" in2="effect1_dropShadow_198_8" result="shape"/>
</filter>
<filter id="filter3_d_198_8" x="-176.117" y="-113.387" width="459.224" height="552.625" filterUnits="userSpaceOnUse" color-interpolation-filters="sRGB">
<feFlood flood-opacity="0" result="BackgroundImageFix"/>
<feColorMatrix in="SourceAlpha" type="matrix" values="0 0 0 0 0 0 0 0 0 0 0 0 0 0 0 0 0 0 127 0" result="hardAlpha"/>
<feOffset dy="30"/>
<feGaussianBlur stdDeviation="4"/>
<feComposite in2="hardAlpha" operator="out"/>
<feColorMatrix type="matrix" values="0 0 0 0 0 0 0 0 0 0 0 0 0 0 0 0 0 0 0.1 0"/>
<feBlend mode="normal" in2="BackgroundImageFix" result="effect1_dropShadow_198_8"/>
<feBlend mode="normal" in="SourceGraphic" in2="effect1_dropShadow_198_8" result="shape"/>
</filter>
<linearGradient id="paint0_linear_198_8" x1="1180.36" y1="80.2384" x2="1180.36" y2="699.052" gradientUnits="userSpaceOnUse">
<stop stop-color="#EB6D18"/>
<stop offset="1" stop-color="#FEFEFE" stop-opacity="0"/>
</linearGradient>
<linearGradient id="paint1_linear_198_8" x1="1101.23" y1="15.5068" x2="1101.23" y2="634.32" gradientUnits="userSpaceOnUse">
<stop stop-color="#EB6D18"/>
<stop offset="1" stop-color="#FEFEFE" stop-opacity="0"/>
</linearGradient>
<linearGradient id="paint2_linear_198_8" x1="762.864" y1="501.192" x2="975.054" y2="501.192" gradientUnits="userSpaceOnUse">
<stop stop-color="#EB6D18"/>
<stop offset="1" stop-color="#F7AF25"/>
</linearGradient>
<linearGradient id="paint3_linear_198_8" x1="314.139" y1="-0.318604" x2="314.139" y2="192.828" gradientUnits="userSpaceOnUse">
<stop stop-color="#F7AF25"/>
<stop offset="1" stop-color="#FBDB9D"/>
</linearGradient>
<linearGradient id="paint4_linear_198_8" x1="314.139" y1="-0.318604" x2="314.139" y2="192.828" gradientUnits="userSpaceOnUse">
<stop stop-color="#EB6D18"/>
<stop offset="1" stop-color="#F3A977"/>
</linearGradient>
<linearGradient id="paint5_linear_198_8" x1="239.959" y1="-113.387" x2="239.959" y2="444.955" gradientUnits="userSpaceOnUse">
<stop stop-color="#EB6D18"/>
<stop offset="1" stop-color="#FEFEFE" stop-opacity="0"/>
</linearGradient>
<linearGradient id="paint6_linear_198_8" x1="261.6" y1="585.443" x2="1039.44" y2="582.368" gradientUnits="userSpaceOnUse">
<stop stop-color="#EB6D18"/>
<stop offset="1" stop-color="#F7AF25"/>
</linearGradient>
<clipPath id="clip0_198_8">
<rect width="1011" height="638" rx="20" fill="white"/>
</clipPath>
</defs>
</svg>
